<svg width="180" height="180" viewBox="0 0 180 180" fill="none" xmlns="http://www.w3.org/2000/svg">
<rect width="180" height="180" rx="13" fill="white"/>
<path d="M22.9 146V42.05H85.6V54.5H37.45V85.85H80.2V98.15H37.45V146H22.9ZM127.616 135.65C142.816 135.65 150.416 130.45 150.416 120.05C150.416 116.85 149.716 114.15 148.316 111.95C147.016 109.65 145.216 107.7 142.916 106.1C140.616 104.4 137.966 102.95 134.966 101.75C132.066 100.55 128.966 99.35 125.666 98.15C121.866 96.85 118.266 95.4 114.866 93.8C111.466 92.1 108.516 90.15 106.016 87.95C103.516 85.65 101.516 82.95 100.016 79.85C98.6164 76.75 97.9164 73 97.9164 68.6C97.9164 59.5 101.016 52.4 107.216 47.3C113.416 42.2 121.966 39.65 132.866 39.65C139.166 39.65 144.866 40.35 149.966 41.75C155.166 43.05 158.966 44.5 161.366 46.1L156.716 57.95C154.616 56.65 151.466 55.4 147.266 54.2C143.166 52.9 138.366 52.25 132.866 52.25C130.066 52.25 127.466 52.55 125.066 53.15C122.666 53.75 120.566 54.65 118.766 55.85C116.966 57.05 115.516 58.6 114.416 60.5C113.416 62.3 112.916 64.45 112.916 66.95C112.916 69.75 113.466 72.1 114.566 74C115.666 75.9 117.216 77.6 119.216 79.1C121.216 80.5 123.516 81.8 126.116 83C128.816 84.2 131.766 85.4 134.966 86.6C139.466 88.4 143.566 90.2 147.266 92C151.066 93.8 154.316 95.95 157.016 98.45C159.816 100.95 161.966 103.95 163.466 107.45C164.966 110.85 165.716 115 165.716 119.9C165.716 129 162.366 136 155.666 140.9C149.066 145.8 139.716 148.25 127.616 148.25C123.516 148.25 119.716 147.95 116.216 147.35C112.816 146.85 109.766 146.25 107.066 145.55C104.366 144.75 102.016 143.95 100.016 143.15C98.1164 142.25 96.6164 141.5 95.5164 140.9L99.8664 128.9C102.166 130.2 105.666 131.65 110.366 133.25C115.066 134.85 120.816 135.65 127.616 135.65Z" fill="black"/>
</svg>
